/* XPM */
static char *_e9d9e54e3d34010d440b6cd93215640FQs5GyLRVYQjUuRO[] = {
/* columns rows colors chars-per-pixel */
"32 32 6 1 ",
"  c None",
". c #222034",
"X c #CB753B",
"o c #FBA76E",
"O c #9BADB7",
"+ c white",
/* pixels */
"                                ",
"                                ",
"                                ",
"                                ",
"                                ",
"                                ",
"                                ",
"                                ",
"                                ",
"                                ",
"                                ",
"                                ",
"                                ",
"                 ...            ",
"                .+++....        ",
"               .++.+ooo.        ",
"               .++++ooo.        ",
"               .++++...         ",
"               .+++.            ",
"       .       .+++.            ",
"      .+........+++.            ",
"      .++++++++++++.            ",
"       ..+++++++++++.           ",
"        .+++++++++++.           ",
"        .+++++++++O+.           ",
"        .+++++++OO++.           ",
"        .+++++++++++.           ",
"         .+++++++++.            ",
"          .........             ",
"             oX                 ",
"             ooX                ",
"             ooX                "
};
