/* XPM */
static char *_6a0fb2396e544a582cf354526b72a34A3kazGqXmS6AIZYe[] = {
/* columns rows colors chars-per-pixel */
"50 37 20 1 ",
"  c None",
". c #050403",
"X c #14121D",
"o c #171819",
"O c #151C36",
"+ c #282C3C",
"@ c #2D3835",
"# c #323232",
"$ c #452A1B",
"% c #724B2C",
"& c #61683A",
"* c #1B2447",
"= c #222D57",
"- c #3A4542",
"; c #B05B2C",
": c #B47538",
"> c #939446",
", c #D39741",
"< c #F8F644",
"1 c #73EFE8",
/* pixels */
"                                                  ",
"                                                  ",
"                                                  ",
"                                                  ",
"                                                  ",
"                                                  ",
"                   ****===*                       ",
"                    O***====*                     ",
"                $   OO****===*                    ",
"               $%$   O****...=                    ",
"                :%$$ OO**.1.1=                    ",
"                 $$>>OO**....=                    ",
"                  &>;OOO.....=                    ",
"                  &OO;OOOO..===                   ",
"                  OOOO,OOO*=====                  ",
"                  OOOOO,*****===                  ",
"                  OOOOO*,*****==                  ",
"                  OOOO***,,***==                  ",
"                  OOOO***<,***==                  ",
"                  OOO******;**==                  ",
"                  OO**********==                  ",
"                  OO******#***==                  ",
"                 OOO******#***==                  ",
"                 OOO******o#**==                  ",
"                 OOO*****oo#**==                  ",
"                 OO******-@@**==                  ",
"                 OO*****---@**==                  ",
"                 OO*****XX-@**==                  ",
"                 OO****XXXX@**==                  ",
"                 OO***@XXXX@@**=                  ",
"                 OO***@XXXX@@**=                  ",
"                 OO**++XXXX++**                   ",
"                 OO*++XXXXXX+**                   ",
"                 OOO++XXXXXX+*                    ",
"                 O +++ XX   +*+                   ",
"                                                  ",
"                                                  "
};
