/* XPM */
static char *a89c4745b6e043f1eff658d44da1a7ceVgRfLAhJSAfLuEhA[] = {
/* columns rows colors chars-per-pixel */
"50 37 20 1 ",
"  c None",
". c #050403",
"X c #14121D",
"o c #171819",
"O c #151C36",
"+ c #282C3C",
"@ c #2D3835",
"# c #323232",
"$ c #452A1B",
"% c #724B2C",
"& c #61683A",
"* c #1B2447",
"= c #222D57",
"- c #3A4542",
"; c #B05B2C",
": c #B47538",
"> c #939446",
", c #D39741",
"< c #F8F644",
"1 c #73EFE8",
/* pixels */
"                                                  ",
"                                                  ",
"                                                  ",
"                                                  ",
"                                                  ",
"                   ****===*                       ",
"                    OO**====*                     ",
"                $   OO****===*                    ",
"               $%$   O****...=                    ",
"                :%$$ OO**.1.1=                    ",
"                 $$>>OO**....=                    ",
"                  &>;OOO.....=                    ",
"                  &OO;OOOO..===                   ",
"                  OOOO,OOO*=====                  ",
"                  OOOOO,*****===                  ",
"                  OOOO**,*****==                  ",
"                  OOOO***,,***==                  ",
"                  OOO****<,***==                  ",
"                  OOO******,**==                  ",
"                  OOO******;**==                  ",
"                  OOO*****#***==                  ",
"                  OOO*****#***==                  ",
"                  OOO*****##**==                  ",
"                  OOO*****o#**==                  ",
"                  OOO*****o-**==                  ",
"                  OO*****---**==                  ",
"                  OO*****--@**==                  ",
"                  OO****XX-@**==                  ",
"                  OO****XXX@**==                  ",
"                  OO***XXXX@***=                  ",
"                  OO***XXXX@@**=                  ",
"                  OO+++XXXX++**                   ",
"                  OO++XXXXXX+**                   ",
"                  O ++ XX   +*                    ",
"                  O+++      +*+                   ",
"                                                  ",
"                                                  "
};
