/* XPM */
static char *_fdb077669c84a55b87b0f4f9d2020bbvF6xvsX9ejcQYzmE[] = {
/* columns rows colors chars-per-pixel */
"50 37 20 1 ",
"  c None",
". c #050403",
"X c #14121D",
"o c #171819",
"O c #151C36",
"+ c #282C3C",
"@ c #2D3835",
"# c #323232",
"$ c #452A1B",
"% c #724B2C",
"& c #61683A",
"* c #1B2447",
"= c #222D57",
"- c #3A4542",
"; c #B05B2C",
": c #B47538",
"> c #939446",
", c #D39741",
"< c #EBC659",
"1 c #73EFE8",
/* pixels */
"                                                  ",
"                                                  ",
"                                                  ",
"                                                  ",
"                                                  ",
"                   ****===*                       ",
"                    O***====*                     ",
"                $   OO****===*                    ",
"               $%$   O****...=                    ",
"                :%$$ OO**.1.1=                    ",
"                 $$>>OO**....=                    ",
"                  &>;OOO.....=                    ",
"                  &OO;OOOO..===                   ",
"                  OOOO,OOO*=====                  ",
"                  OOOOO,*****===                  ",
"                  OOOOO*,*****==                  ",
"                  OOOOO**,,***==                  ",
"                  OOOOO**<,***==                  ",
"                  OOOOO****,**==                  ",
"                  OOOOO****;**==                  ",
"                  OOOOO***#***==                  ",
"                 OOOOOO***#***==                  ",
"                 OOOOOO**##***==                  ",
"                 OOOOO***oo#**==                  ",
"                 OOOOO***oo-**==                  ",
"                 OOOOO***---**==                  ",
"                 OOOOO**---@**==                  ",
"                  OOOO**XX-@***=                  ",
"                   OOO**XXX@***=                  ",
"                   OOO**XXX@***                   ",
"                   OOO**XXX@@**                   ",
"                    OOO**XX++**                   ",
"                    OOOO*X  +**                   ",
"                    ++OO*   +*                    ",
"                   +++OO*   +*+                   ",
"                                                  ",
"                                                  "
};
